<svg width="56" height="56" viewBox="0 0 56 56" fill="none" xmlns="http://www.w3.org/2000/svg">
<path d="M50 0C53.25 0 56 2.75 56 6V50C56 53.375 53.25 56 50 56H6C2.625 56 0 53.375 0 50V6C0 2.75 2.625 0 6 0H50ZM30.375 43.75V25.75H25.125V43.625C25.125 46.25 24 47 22.375 47C20.5 47 19.75 45.75 19 44.25L14.625 46.875C15.875 49.5 18.375 51.625 22.5 51.625C27.25 51.625 30.375 49.125 30.375 43.75ZM42.875 51.625C47.875 51.625 51.625 49.125 51.625 44.375C51.625 40 49.125 38 44.625 36.125L43.25 35.5C41 34.5 40 33.875 40 32.25C40 31 41 30 42.5 30C44.125 30 45 30.75 46 32.25L50 29.625C48.375 26.625 45.875 25.5 42.625 25.5C37.875 25.5 34.875 28.5 34.875 32.375C34.875 36.75 37.375 38.75 41.125 40.375L42.5 40.875C44.875 42 46.375 42.625 46.375 44.375C46.375 45.875 44.875 47 42.75 47C40.125 47 38.75 45.625 37.625 43.875L33.25 46.25C34.875 49.375 38 51.625 42.875 51.625Z" fill="#00050B"/>
</svg>
