<svg width="110" height="22" viewBox="0 0 110 22" fill="none" xmlns="http://www.w3.org/2000/svg">
<path d="M18 8L19.25 5.25L22 4L19.25 2.75L18 0L16.75 2.75L14 4L16.75 5.25L18 8Z" fill="#464646"/>
<path d="M18 14L16.75 16.75L14 18L16.75 19.25L18 22L19.25 19.25L22 18L19.25 16.75L18 14Z" fill="#464646"/>
<path d="M10.5 8.5L8 3L5.5 8.5L0 11L5.5 13.5L8 19L10.5 13.5L16 11L10.5 8.5ZM8.99 11.99L8 14.17L7.01 11.99L4.83 11L7.01 10.01L8 7.83L8.99 10.01L11.17 11L8.99 11.99Z" fill="#464646"/>
<path d="M31.184 16.5V5.14H36C36.5227 5.14 37.0027 5.24667 37.44 5.46C37.8773 5.67333 38.256 5.96133 38.576 6.324C38.9067 6.68667 39.1627 7.092 39.344 7.54C39.5253 7.988 39.616 8.44667 39.616 8.916C39.616 9.556 39.4667 10.164 39.168 10.74C38.8693 11.316 38.4587 11.7853 37.936 12.148C37.4133 12.5107 36.7947 12.692 36.08 12.692H33.392V16.5H31.184ZM33.392 10.756H35.952C36.2187 10.756 36.4587 10.6813 36.672 10.532C36.8853 10.3827 37.056 10.1693 37.184 9.892C37.312 9.604 37.376 9.27867 37.376 8.916C37.376 8.52133 37.3013 8.18533 37.152 7.908C37.0133 7.63067 36.8267 7.42267 36.592 7.284C36.368 7.14533 36.1227 7.076 35.856 7.076H33.392V10.756ZM40.2594 14.02C40.2594 13.476 40.4087 13.0013 40.7074 12.596C41.0167 12.18 41.4434 11.86 41.9874 11.636C42.5314 11.412 43.1554 11.3 43.8594 11.3C44.2114 11.3 44.5687 11.3267 44.9314 11.38C45.294 11.4333 45.6087 11.5187 45.8754 11.636V11.188C45.8754 10.6547 45.7154 10.244 45.3954 9.956C45.086 9.668 44.622 9.524 44.0034 9.524C43.5447 9.524 43.1074 9.604 42.6914 9.764C42.2754 9.924 41.838 10.1587 41.3794 10.468L40.6914 9.06C41.246 8.69733 41.8114 8.42533 42.3874 8.244C42.974 8.06267 43.5874 7.972 44.2274 7.972C45.422 7.972 46.35 8.27067 47.0114 8.868C47.6834 9.46533 48.0194 10.3187 48.0194 11.428V14.1C48.0194 14.324 48.0567 14.484 48.1314 14.58C48.2167 14.676 48.35 14.7347 48.5314 14.756V16.5C48.3394 16.532 48.1634 16.5587 48.0034 16.58C47.854 16.6013 47.726 16.612 47.6194 16.612C47.1927 16.612 46.8674 16.516 46.6434 16.324C46.43 16.132 46.2967 15.8973 46.2434 15.62L46.1954 15.188C45.8327 15.6573 45.3794 16.02 44.8354 16.276C44.2914 16.532 43.7367 16.66 43.1714 16.66C42.6167 16.66 42.1154 16.548 41.6674 16.324C41.23 16.0893 40.8834 15.7747 40.6274 15.38C40.382 14.9747 40.2594 14.5213 40.2594 14.02ZM45.4754 14.452C45.5927 14.324 45.6887 14.196 45.7634 14.068C45.838 13.94 45.8754 13.8227 45.8754 13.716V12.868C45.6194 12.7613 45.342 12.6813 45.0434 12.628C44.7447 12.564 44.462 12.532 44.1954 12.532C43.6407 12.532 43.182 12.6547 42.8194 12.9C42.4674 13.1347 42.2914 13.4493 42.2914 13.844C42.2914 14.0573 42.35 14.26 42.4674 14.452C42.5847 14.644 42.7554 14.7987 42.9794 14.916C43.2034 15.0333 43.47 15.092 43.7794 15.092C44.0994 15.092 44.414 15.0333 44.7234 14.916C45.0327 14.788 45.2834 14.6333 45.4754 14.452ZM49.9429 13.364V8.116H52.0869V12.9C52.0869 13.54 52.2042 14.0253 52.4389 14.356C52.6735 14.676 53.0202 14.836 53.4789 14.836C53.7562 14.836 54.0282 14.7827 54.2949 14.676C54.5722 14.5587 54.8229 14.388 55.0469 14.164C55.2815 13.94 55.4789 13.6573 55.6389 13.316V8.116H57.7829V14.1C57.7829 14.324 57.8202 14.484 57.8949 14.58C57.9802 14.676 58.1135 14.7347 58.2949 14.756V16.5C58.0815 16.532 57.9002 16.5533 57.7509 16.564C57.6122 16.5853 57.4842 16.596 57.3669 16.596C56.9829 16.596 56.6682 16.5107 56.4229 16.34C56.1882 16.1587 56.0495 15.9133 56.0069 15.604L55.9589 14.932C55.5855 15.4973 55.1055 15.9293 54.5189 16.228C53.9322 16.516 53.2869 16.66 52.5829 16.66C51.7189 16.66 51.0629 16.3827 50.6149 15.828C50.1669 15.2627 49.9429 14.4413 49.9429 13.364ZM59.8975 4.82H62.0415V13.812C62.0415 14.196 62.1055 14.4573 62.2335 14.596C62.3615 14.724 62.5375 14.788 62.7615 14.788C62.9322 14.788 63.1082 14.7667 63.2895 14.724C63.4708 14.6813 63.6308 14.628 63.7695 14.564L64.0575 16.196C63.7695 16.3347 63.4335 16.4413 63.0495 16.516C62.6655 16.5907 62.3188 16.628 62.0095 16.628C61.3375 16.628 60.8148 16.452 60.4415 16.1C60.0788 15.7373 59.8975 15.2253 59.8975 14.564V4.82ZM68.8636 16.66C68.181 16.66 67.5676 16.548 67.0236 16.324C66.4796 16.0893 66.0156 15.7693 65.6316 15.364C65.2583 14.9587 64.9703 14.4947 64.7676 13.972C64.565 13.4493 64.4636 12.9 64.4636 12.324C64.4636 11.7373 64.565 11.1827 64.7676 10.66C64.9703 10.1373 65.2583 9.67333 65.6316 9.268C66.0156 8.86267 66.4796 8.548 67.0236 8.324C67.5676 8.08933 68.181 7.972 68.8636 7.972C69.5463 7.972 70.1543 8.08933 70.6876 8.324C71.2316 8.548 71.6956 8.86267 72.0796 9.268C72.4636 9.67333 72.7516 10.1373 72.9436 10.66C73.1463 11.1827 73.2476 11.7373 73.2476 12.324C73.2476 12.9 73.1463 13.4493 72.9436 13.972C72.7516 14.4947 72.4636 14.9587 72.0796 15.364C71.7063 15.7693 71.2476 16.0893 70.7036 16.324C70.1596 16.548 69.5463 16.66 68.8636 16.66ZM66.6716 12.324C66.6716 12.8147 66.7676 13.252 66.9596 13.636C67.1516 14.0093 67.413 14.3027 67.7436 14.516C68.0743 14.7293 68.4476 14.836 68.8636 14.836C69.269 14.836 69.637 14.7293 69.9676 14.516C70.2983 14.292 70.5596 13.9933 70.7516 13.62C70.9543 13.236 71.0556 12.7987 71.0556 12.308C71.0556 11.828 70.9543 11.396 70.7516 11.012C70.5596 10.628 70.2983 10.3293 69.9676 10.116C69.637 9.90267 69.269 9.796 68.8636 9.796C68.4476 9.796 68.0743 9.908 67.7436 10.132C67.413 10.3453 67.1516 10.644 66.9596 11.028C66.7676 11.4013 66.6716 11.8333 66.6716 12.324ZM78.7465 16.5V5.14H83.7705C84.2932 5.14 84.7732 5.24667 85.2105 5.46C85.6585 5.67333 86.0425 5.96133 86.3625 6.324C86.6932 6.68667 86.9438 7.092 87.1145 7.54C87.2958 7.988 87.3865 8.44667 87.3865 8.916C87.3865 9.396 87.3012 9.86 87.1305 10.308C86.9705 10.7453 86.7358 11.1293 86.4265 11.46C86.1172 11.7907 85.7545 12.0467 85.3385 12.228L87.9305 16.5H85.4985L83.1625 12.692H80.9545V16.5H78.7465ZM80.9545 10.756H83.7225C83.9998 10.756 84.2452 10.676 84.4585 10.516C84.6718 10.3453 84.8425 10.1213 84.9705 9.844C85.0985 9.56667 85.1625 9.25733 85.1625 8.916C85.1625 8.55333 85.0878 8.23867 84.9385 7.972C84.7892 7.69467 84.5972 7.476 84.3625 7.316C84.1385 7.156 83.8932 7.076 83.6265 7.076H80.9545V10.756ZM92.7859 16.66C92.1139 16.66 91.5059 16.548 90.9619 16.324C90.4179 16.0893 89.9539 15.7747 89.5699 15.38C89.1859 14.9747 88.8872 14.516 88.6739 14.004C88.4712 13.4813 88.3699 12.932 88.3699 12.356C88.3699 11.556 88.5459 10.8253 88.8979 10.164C89.2605 9.50267 89.7725 8.97467 90.4339 8.58C91.1059 8.17467 91.8952 7.972 92.8019 7.972C93.7192 7.972 94.5032 8.17467 95.1539 8.58C95.8045 8.97467 96.3005 9.50267 96.6419 10.164C96.9939 10.8147 97.1699 11.5187 97.1699 12.276C97.1699 12.404 97.1645 12.5373 97.1539 12.676C97.1432 12.804 97.1325 12.9107 97.1219 12.996H90.6419C90.6845 13.4227 90.8072 13.796 91.0099 14.116C91.2232 14.436 91.4899 14.6813 91.8099 14.852C92.1405 15.012 92.4925 15.092 92.8659 15.092C93.2925 15.092 93.6925 14.9907 94.0659 14.788C94.4499 14.5747 94.7112 14.2973 94.8499 13.956L96.6899 14.468C96.4872 14.8947 96.1939 15.2733 95.8099 15.604C95.4365 15.9347 94.9939 16.196 94.4819 16.388C93.9699 16.5693 93.4045 16.66 92.7859 16.66ZM90.5939 11.636H94.9779C94.9352 11.2093 94.8125 10.8413 94.6099 10.532C94.4179 10.212 94.1619 9.96667 93.8419 9.796C93.5219 9.61467 93.1645 9.524 92.7699 9.524C92.3859 9.524 92.0339 9.61467 91.7139 9.796C91.4045 9.96667 91.1485 10.212 90.9459 10.532C90.7539 10.8413 90.6365 11.2093 90.5939 11.636ZM98.476 16.5V8.116H100.62V16.5H98.476ZM98.476 6.948V4.82H100.62V6.948H98.476ZM105.642 16.66C104.927 16.66 104.245 16.5427 103.594 16.308C102.943 16.0733 102.383 15.7267 101.914 15.268L102.682 13.876C103.183 14.2813 103.674 14.58 104.154 14.772C104.645 14.964 105.114 15.06 105.562 15.06C105.978 15.06 106.309 14.9853 106.554 14.836C106.81 14.6867 106.938 14.4627 106.938 14.164C106.938 13.9613 106.869 13.8067 106.73 13.7C106.591 13.5827 106.389 13.4813 106.122 13.396C105.866 13.3107 105.551 13.2147 105.178 13.108C104.559 12.9053 104.042 12.708 103.626 12.516C103.21 12.324 102.895 12.084 102.682 11.796C102.479 11.4973 102.378 11.1187 102.378 10.66C102.378 10.1053 102.517 9.63067 102.794 9.236C103.082 8.83067 103.477 8.516 103.978 8.292C104.49 8.068 105.087 7.956 105.77 7.956C106.367 7.956 106.933 8.052 107.466 8.244C107.999 8.42533 108.485 8.724 108.922 9.14L108.058 10.5C107.631 10.1693 107.226 9.92933 106.842 9.78C106.458 9.62 106.069 9.54 105.674 9.54C105.45 9.54 105.237 9.56667 105.034 9.62C104.842 9.67333 104.682 9.764 104.554 9.892C104.437 10.0093 104.378 10.18 104.378 10.404C104.378 10.6067 104.431 10.7667 104.538 10.884C104.655 10.9907 104.826 11.0867 105.05 11.172C105.285 11.2573 105.567 11.3533 105.898 11.46C106.57 11.652 107.135 11.8493 107.594 12.052C108.063 12.2547 108.415 12.5053 108.65 12.804C108.885 13.092 109.002 13.492 109.002 14.004C109.002 14.836 108.698 15.4867 108.09 15.956C107.482 16.4253 106.666 16.66 105.642 16.66Z" fill="#A62D4E"/>
</svg>
